<?xml version="1.0" standalone="no"?>
<!DOCTYPE svg PUBLIC "-//W3C//DTD SVG 20010904//EN"
 "http://www.w3.org/TR/2001/REC-SVG-20010904/DTD/svg10.dtd">
<svg version="1.0" xmlns="http://www.w3.org/2000/svg"
 width="430.000000pt" height="430.000000pt" viewBox="0 0 430.000000 430.000000"
 preserveAspectRatio="xMidYMid meet">
<metadata>
Created by potrace 1.14, written by Peter Selinger 2001-2017
</metadata>
<g transform="translate(0.000000,430.000000) scale(0.100000,-0.100000)"
fill="#000000" stroke="none">
<path d="M1958 4184 c-2 -2 -27 -6 -55 -9 -43 -4 -108 -16 -232 -41 -79 -16
-264 -84 -376 -139 -106 -51 -293 -161 -315 -185 -3 -3 -41 -34 -85 -70 -271
-219 -514 -559 -625 -875 -31 -88 -58 -175 -55 -175 8 0 45 84 42 95 -3 6 1
12 8 12 12 0 11 -6 0 -35 -8 -19 -13 -38 -10 -42 3 -5 1 -11 -4 -14 -7 -5 -17
-38 -27 -91 -1 -5 -3 -12 -4 -15 -1 -3 -4 -18 -6 -35 -3 -16 -7 -37 -10 -45
-4 -8 -8 -33 -10 -54 -3 -22 -7 -51 -10 -65 -9 -44 -14 -291 -6 -291 5 0 9 12
9 28 1 59 6 117 11 126 3 5 6 32 7 60 3 75 15 151 30 199 9 28 13 35 14 20 1
-30 21 -30 21 0 0 13 7 48 15 78 8 30 23 81 32 114 9 33 20 64 25 70 4 5 8 17
8 26 0 33 161 352 195 386 8 8 15 17 15 21 0 4 11 20 25 36 14 16 25 32 25 35
0 3 10 17 23 31 12 14 34 41 48 60 15 19 60 67 100 107 77 74 92 88 154 138
20 17 42 35 49 41 51 47 365 233 378 223 2 -1 21 7 43 18 61 30 233 88 299
100 11 2 49 10 84 18 36 9 67 14 69 11 2 -2 27 2 56 10 37 10 101 12 236 9
103 -2 197 -7 211 -9 14 -3 39 -8 55 -12 96 -19 285 -69 322 -85 24 -10 43
-16 43 -14 0 8 238 -102 250 -116 3 -3 13 -8 22 -12 51 -19 270 -181 368 -273
25 -23 62 -57 83 -77 20 -19 37 -40 37 -46 0 -6 7 -14 15 -17 8 -4 15 -11 15
-16 0 -10 70 -101 83 -106 4 -2 7 -8 7 -14 0 -5 11 -24 25 -42 14 -18 25 -38
25 -44 0 -7 5 -12 10 -12 6 0 10 -7 10 -15 0 -8 5 -15 11 -15 5 0 8 -4 4 -9
-3 -5 -1 -13 5 -16 22 -14 139 -275 169 -375 16 -58 32 -116 35 -130 2 -14 9
-45 14 -70 17 -73 24 -121 27 -187 1 -33 6 -66 9 -72 4 -6 2 -11 -4 -11 -6 0
-9 -4 -6 -8 7 -12 9 -139 2 -187 -3 -22 -8 -78 -12 -125 -3 -47 -8 -102 -10
-123 -1 -21 -6 -52 -10 -70 -4 -18 -8 -39 -9 -47 -8 -66 -123 -402 -144 -420
-3 -3 -22 -34 -41 -70 -35 -66 -41 -77 -72 -111 -10 -10 -18 -25 -18 -32 0
-12 -107 -165 -135 -193 -6 -7 -23 -26 -38 -44 -15 -17 -31 -29 -35 -26 -5 3
-19 -5 -31 -18 -15 -16 -19 -26 -11 -31 12 -7 25 2 104 78 28 26 54 47 59 47
4 0 6 3 4 8 -3 4 7 16 21 27 l27 20 -20 -31 c-90 -139 -284 -322 -470 -441
-44 -29 -92 -63 -107 -77 -15 -14 -54 -40 -87 -56 -33 -17 -63 -36 -67 -42 -4
-5 4 -3 17 5 13 9 26 16 29 16 9 0 105 44 110 50 3 3 19 13 35 21 40 20 177
101 192 115 33 28 43 35 47 35 20 0 293 271 351 348 21 28 43 52 48 52 4 0 5
5 2 10 -3 6 -2 10 4 10 5 0 16 12 24 27 31 61 53 98 65 111 6 7 12 18 12 24 0
5 9 23 21 39 11 16 17 29 14 29 -4 0 1 7 9 16 9 8 16 22 16 30 0 8 4 14 10 14
5 0 7 7 4 15 -4 8 -1 15 5 15 6 0 11 4 11 9 0 5 4 20 9 33 5 13 10 28 11 33 1
6 11 27 21 47 11 21 17 38 13 38 -4 0 -2 6 4 13 6 7 13 25 16 40 2 15 8 32 11
38 12 19 57 185 70 262 15 86 17 95 30 227 8 72 7 188 0 200 -5 8 -4 11 3 6 7
-4 10 1 9 14 -1 11 -5 20 -9 20 -4 0 -8 5 -8 11 0 5 4 7 10 4 6 -3 7 1 4 9 -4
9 -1 16 6 16 10 0 11 -41 7 -183 -6 -196 -8 -209 -38 -367 -20 -102 -24 -119
-34 -160 -3 -11 -7 -28 -9 -38 -2 -9 -13 -43 -24 -75 -11 -31 -18 -57 -14 -57
3 0 -3 -7 -14 -16 -10 -8 -13 -12 -5 -9 9 5 8 -1 -4 -19 -10 -14 -14 -26 -10
-26 3 0 -1 -7 -9 -16 -9 -8 -13 -20 -10 -26 4 -6 -1 -17 -10 -24 -10 -7 -17
-15 -18 -18 0 -20 -12 -46 -20 -46 -5 0 -8 -8 -6 -18 2 -9 -2 -16 -9 -15 -7 2
-10 -4 -7 -12 4 -8 1 -15 -6 -15 -7 0 -10 -7 -6 -15 3 -8 0 -14 -6 -12 -7 1
-13 -4 -14 -10 -1 -7 -3 -16 -4 -20 -1 -5 -2 -12 -1 -16 1 -5 -3 -6 -8 -3 -5
3 -12 -5 -15 -19 -4 -14 -11 -25 -16 -25 -6 0 -10 -6 -10 -13 0 -7 -8 -22 -19
-33 -10 -11 -21 -29 -25 -40 -3 -10 -16 -31 -28 -46 -13 -15 -34 -41 -48 -59
-14 -18 -42 -50 -62 -71 -20 -21 -35 -38 -33 -38 6 0 -101 -102 -146 -140 -23
-19 -47 -39 -53 -45 -6 -5 -27 -22 -48 -37 -20 -15 -42 -33 -50 -40 -16 -15
-25 -20 -133 -85 -93 -54 -146 -80 -310 -152 -45 -19 -248 -81 -268 -81 -5 0
-6 4 -3 8 2 4 -4 9 -15 9 -10 1 -19 -3 -19 -8 0 -6 5 -7 12 -3 7 5 8 3 4 -5
-5 -7 -11 -10 -14 -7 -3 3 -11 1 -19 -5 -17 -14 -17 2 0 21 6 8 0 5 -14 -8
-28 -24 -39 -28 -39 -11 0 5 5 7 10 4 6 -3 10 -1 10 5 0 7 -7 9 -16 6 -9 -3
-22 -6 -31 -6 -9 0 -13 -6 -10 -15 8 -19 -2 -24 -33 -14 -24 7 -24 7 -2 8 12
1 22 6 22 12 0 5 -3 8 -8 5 -12 -7 -169 -18 -254 -18 -43 0 -78 -4 -78 -9 0
-4 8 -6 18 -3 16 5 16 5 -1 -6 -19 -12 -41 -5 -32 11 4 5 1 9 -4 9 -6 0 -11
-7 -11 -16 0 -8 -5 -12 -10 -9 -6 4 -7 11 -4 17 4 7 2 8 -5 4 -6 -4 -9 -11 -6
-16 3 -5 -12 -6 -32 -3 -21 3 -34 2 -30 -3 12 -13 157 -14 154 -1 -1 8 22 12
70 12 39 0 69 -4 66 -8 -3 -5 -14 -6 -25 -4 -19 5 -64 -31 -52 -42 3 -3 10 2
15 12 11 19 34 23 45 5 4 -6 3 -8 -2 -5 -6 3 -16 2 -24 -3 -10 -6 31 -9 110
-8 69 1 131 6 138 11 6 5 12 7 12 5 0 -6 178 33 255 55 95 28 283 102 325 128
8 5 22 12 30 16 34 15 215 127 218 135 2 4 10 8 18 8 8 0 14 4 14 8 0 5 21 23
48 40 65 43 212 180 287 266 22 26 51 60 65 75 14 16 31 37 38 47 7 11 38 55
69 99 52 74 145 245 185 340 32 77 78 226 73 236 -4 5 -2 9 3 9 14 0 21 47 8
60 -8 8 -7 11 3 8 7 -2 16 3 19 11 3 9 0 11 -8 6 -7 -5 -6 2 3 16 9 13 18 49
22 79 4 30 8 57 10 60 10 17 19 168 19 320 0 184 -8 295 -29 400 -3 14 -8 41
-11 60 -8 50 -44 191 -54 215 -5 11 -14 38 -21 60 -17 57 -86 208 -127 279
-52 90 -144 226 -153 226 -4 0 -9 6 -11 14 -9 40 -206 243 -362 374 -166 139
-491 308 -688 358 -5 1 -9 2 -10 4 -2 1 -10 3 -18 5 -8 2 -35 8 -59 13 -25 6
-49 9 -53 6 -4 -3 -8 -1 -8 4 0 4 -35 14 -77 21 -43 7 -91 15 -108 18 -37 6
-422 13 -427 7z m-1637 -1371 c-12 -20 -14 -14 -5 12 4 9 9 14 11 11 3 -2 0
-13 -6 -23z m-23 -80 c-19 -44 -28 -50 -16 -10 6 21 15 37 19 37 5 0 3 -12 -3
-27z m-23 -80 c-10 -38 -13 -56 -14 -70 -1 -7 -5 -13 -11 -13 -5 0 -3 19 4 45
8 25 12 45 9 45 -2 0 -1 5 2 10 12 19 17 10 10 -17z m3850 -294 c4 -29 -6 -48
-26 -49 -3 0 -2 20 4 45 12 51 16 52 22 4z m-406 -1512 c-2 -1 -13 -9 -24 -17
-19 -14 -19 -14 -6 3 7 9 18 17 24 17 6 0 8 -1 6 -3z m-55 -59 c-10 -13 -28
-32 -39 -44 -11 -11 -30 -31 -42 -45 -31 -35 -53 -51 -53 -40 0 5 9 16 20 24
10 7 33 31 50 52 16 21 30 34 30 30 0 -4 9 4 21 19 11 14 23 26 26 26 3 0 -2
-10 -13 -22z m-144 -142 c0 -2 -8 -10 -17 -17 -16 -13 -17 -12 -4 4 13 16 21
21 21 13z m-52 -54 c-13 -8 -27 -20 -33 -26 -5 -7 -26 -22 -45 -35 -28 -18
-26 -15 10 15 24 22 51 46 60 55 8 9 19 14 23 11 5 -2 -2 -11 -15 -20z m-158
-121 c0 -5 -12 -17 -27 -26 l-28 -18 24 27 c26 28 31 31 31 17z m-960 -333 c0
-4 -4 -8 -9 -8 -6 0 -12 4 -15 8 -3 5 1 9 9 9 8 0 15 -4 15 -9z m217 6 c-3 -3
-12 -4 -19 -1 -8 3 -5 6 6 6 11 1 17 -2 13 -5z m-247 -38 c0 -8 -49 -13 -60
-6 -6 4 5 7 25 8 19 1 35 0 35 -2z"/>
<path d="M2375 3178 c-10 -6 -29 -21 -41 -32 -115 -111 -175 -154 -254 -180
-75 -26 -91 -37 -169 -120 -191 -203 -276 -267 -426 -322 -63 -23 -204 -95
-318 -163 -86 -51 -109 -74 -51 -50 16 7 31 13 34 14 40 11 110 42 110 48 0 4
4 6 8 3 4 -2 30 8 57 24 110 63 170 92 230 111 107 33 168 66 205 111 38 45
37 44 94 88 75 58 126 110 147 152 30 59 44 70 93 73 25 2 56 12 72 24 16 11
46 23 67 27 22 3 55 11 75 18 54 19 70 9 67 -40 -1 -23 -5 -46 -9 -52 -4 -6
-4 -23 0 -37 7 -30 31 -32 93 -10 22 8 41 12 41 9 0 -2 8 -1 18 4 9 5 36 12
59 16 38 5 42 4 36 -11 -8 -22 -57 -85 -103 -134 -19 -20 -43 -46 -53 -58 -21
-26 -34 -81 -19 -81 6 0 17 -6 24 -12 7 -7 25 -19 40 -27 27 -14 49 -53 54
-97 6 -55 27 -124 37 -125 7 0 19 -2 27 -4 8 -2 33 -6 55 -10 22 -3 94 -20
161 -36 152 -37 166 -40 184 -43 9 -1 20 -5 25 -8 6 -3 26 -9 45 -13 19 -4 40
-10 45 -13 13 -8 55 -14 55 -8 0 12 -72 121 -149 223 -46 61 -82 115 -81 119
1 4 -3 10 -8 13 -13 9 -52 87 -52 106 0 9 -22 40 -49 68 -57 61 -70 85 -100
192 -43 152 -68 177 -118 121 -15 -17 -27 -33 -27 -36 2 -16 -10 -39 -23 -44
-21 -9 -47 24 -100 126 -47 92 -62 103 -108 76z"/>
<path d="M243 2508 c4 -10 3 -18 -2 -18 -4 0 -8 -6 -8 -12 0 -17 -12 -159 -19
-225 -3 -29 -1 -53 4 -53 5 0 10 26 11 58 2 57 4 74 21 187 7 42 6 62 -2 70
-8 7 -9 5 -5 -7z"/>
<path d="M2007 2343 c-1 -1 -61 -4 -132 -7 -72 -4 -140 -8 -150 -10 -11 -2
-45 -7 -76 -10 -31 -4 -65 -8 -75 -10 -11 -2 -40 -7 -66 -10 -90 -12 -307 -55
-322 -63 -8 -4 126 -8 297 -8 373 0 450 -8 565 -56 23 -10 44 -19 47 -19 3 0
30 -11 61 -25 31 -14 60 -25 65 -25 5 0 9 -5 9 -12 0 -6 3 -9 6 -6 3 3 58 -21
122 -55 64 -33 129 -66 144 -74 15 -8 30 -18 32 -22 3 -4 72 10 153 31 81 21
156 39 165 40 26 3 6 21 -54 49 -29 13 -56 28 -60 34 -4 5 -8 7 -8 3 0 -3 -37
10 -82 29 -46 19 -94 39 -108 43 -14 5 -56 20 -95 35 -38 15 -98 36 -132 47
-70 22 -83 34 -25 23 20 -5 48 -10 62 -11 14 -2 55 -10 93 -17 37 -8 67 -12
67 -9 0 2 6 0 13 -5 6 -5 26 -10 42 -12 17 -1 55 -10 85 -18 30 -8 71 -19 90
-23 19 -4 60 -16 90 -25 30 -10 62 -19 70 -20 8 -2 16 -4 18 -5 1 -2 5 -3 10
-5 4 -1 28 -8 55 -15 26 -8 47 -18 47 -22 0 -21 175 9 221 38 10 6 -219 81
-302 99 -33 7 -156 36 -194 46 -22 6 -51 12 -65 14 -28 5 -60 11 -105 19 -16
3 -43 7 -60 10 -16 2 -48 7 -70 11 -119 18 -438 38 -448 28z"/>
<path d="M210 2158 c0 -36 10 -32 14 6 2 14 -1 26 -5 26 -5 0 -9 -14 -9 -32z"/>
<path d="M1360 1662 c-18 -6 -11 -22 10 -22 24 0 25 -17 6 -120 -8 -41 -17
-95 -21 -120 -3 -25 -10 -63 -15 -85 -5 -22 -11 -60 -15 -85 -3 -25 -10 -60
-15 -79 -5 -19 -6 -39 -2 -45 10 -16 92 -15 93 1 1 7 2 16 3 21 1 4 5 30 10
57 10 66 16 85 26 85 5 0 27 -38 49 -84 22 -46 47 -86 56 -90 51 -19 109 8
131 61 17 41 17 43 -1 43 -8 0 -15 -8 -15 -19 0 -10 -7 -24 -15 -31 -27 -22
-49 -7 -65 45 -26 80 -38 104 -60 117 -28 18 -25 33 14 73 35 34 89 51 115 36
14 -9 13 -14 -14 -60 -24 -43 9 -74 51 -46 28 18 33 78 8 110 -19 25 -109 28
-138 5 -41 -33 -96 -93 -101 -111 -4 -10 -11 -19 -16 -19 -6 0 -8 3 -6 8 3 4
8 23 11 42 3 19 7 44 10 55 7 37 39 230 40 244 1 11 -14 15 -61 15 -35 1 -67
0 -73 -2z"/>
<path d="M1852 1620 c-18 -17 -20 -24 -11 -50 9 -24 17 -30 38 -30 46 0 82 57
55 85 -21 21 -56 19 -82 -5z"/>
<path d="M2698 1626 c-34 -26 -19 -86 21 -86 28 1 65 23 54 33 -3 4 -1 7 4 7
7 0 9 10 4 28 -6 21 -14 28 -37 29 -16 2 -37 -3 -46 -11z"/>
<path d="M1051 1607 c-44 -10 -122 -74 -130 -107 -23 -95 -1 -135 105 -185 96
-46 114 -66 103 -114 -15 -68 -99 -107 -173 -80 -42 15 -51 41 -25 70 41 47
12 97 -39 68 -55 -31 -45 -112 18 -148 23 -13 47 -20 55 -17 8 3 17 1 20 -4 3
-5 13 -7 23 -6 9 2 38 6 64 10 117 17 200 137 154 224 -18 34 -38 48 -129 92
-81 39 -104 70 -87 114 20 54 112 83 175 54 30 -14 31 -27 6 -69 -24 -38 -13
-69 23 -69 49 0 74 63 46 115 -26 48 -122 72 -209 52z"/>
<path d="M2195 1581 c-3 -14 -9 -44 -14 -65 -15 -65 0 -75 25 -18 23 53 51 78
97 86 19 3 30 0 37 -13 5 -10 7 -20 5 -23 -3 -2 -7 -20 -9 -39 -6 -42 -33
-196 -40 -226 -2 -11 -8 -43 -12 -70 -5 -26 -9 -51 -10 -55 -1 -5 -2 -15 -3
-23 0 -9 -11 -15 -26 -15 -14 0 -25 -6 -25 -13 0 -9 25 -12 99 -12 100 0 135
9 88 20 -17 5 -24 13 -22 23 1 10 6 40 9 67 4 28 11 69 17 93 5 24 11 60 14
80 3 20 7 48 10 62 3 14 8 47 12 73 7 53 30 78 66 69 40 -9 57 -32 57 -78 0
-33 3 -42 14 -38 14 6 37 117 26 133 -3 6 -85 10 -208 9 l-202 0 -5 -27z"/>
<path d="M3074 1448 c-22 -5 -49 -16 -60 -26 -48 -43 -50 -43 -46 -9 l4 33
-71 0 c-73 -1 -86 -7 -51 -26 18 -9 20 -17 15 -53 -4 -23 -8 -44 -10 -47 -2
-3 -6 -26 -10 -50 -3 -25 -10 -69 -16 -98 -14 -70 -9 -79 38 -77 49 3 50 3 51
18 3 44 31 179 44 212 15 40 63 83 90 81 33 -2 36 -36 13 -155 -30 -151 -30
-156 22 -157 49 -1 44 -8 69 121 9 50 24 104 32 120 20 41 63 76 87 73 17 -3
20 -10 20 -53 -1 -27 -4 -70 -8 -95 -17 -115 -17 -123 -1 -148 14 -22 21 -24
62 -19 36 4 51 12 72 37 24 30 37 70 22 70 -4 0 -17 -16 -30 -35 -27 -43 -53
-47 -47 -7 11 67 16 98 21 110 10 30 16 114 10 138 -4 16 -19 30 -38 39 -42
17 -112 -3 -145 -42 -20 -23 -26 -25 -33 -13 -6 8 -10 21 -10 27 0 24 -52 40
-96 31z"/>
<path d="M1765 1430 c-3 -8 -3 -11 1 -8 14 15 43 -12 38 -35 -3 -12 -7 -37 -9
-54 -3 -27 -15 -98 -25 -148 -14 -68 26 -110 88 -93 52 15 99 85 74 110 -6 6
-12 -1 -17 -19 -8 -35 -23 -53 -42 -53 -12 0 -13 10 -8 53 4 28 9 55 10 58 3
4 35 190 35 202 0 2 -31 3 -70 3 -52 -1 -71 -4 -75 -16z"/>
<path d="M2610 1434 c0 -7 9 -16 21 -19 16 -5 19 -13 15 -29 -3 -13 -8 -41
-12 -62 -3 -21 -10 -57 -15 -79 -11 -49 -11 -116 -1 -132 4 -6 19 -16 33 -21
45 -18 105 21 128 81 8 22 8 27 -4 27 -8 0 -17 -11 -21 -25 -6 -23 -30 -45
-49 -45 -6 0 -2 32 10 101 2 9 6 32 9 50 3 19 10 58 16 88 15 81 18 77 -60 77
-48 0 -70 -4 -70 -12z"/>
<path d="M309 1312 c6 -12 16 -24 22 -28 8 -4 8 -1 0 14 -6 12 -16 24 -22 28
-8 4 -8 1 0 -14z"/>
<path d="M337 1253 c3 -10 10 -23 15 -29 5 -7 19 -31 31 -55 32 -62 51 -93 60
-100 5 -3 7 -9 5 -12 -1 -3 7 -17 19 -30 12 -14 19 -28 16 -31 -4 -3 -1 -6 5
-6 6 0 13 -8 16 -18 4 -10 21 -35 40 -55 19 -20 32 -37 29 -37 -16 0 168 -195
252 -268 28 -23 62 -54 77 -67 15 -13 40 -32 55 -42 16 -10 37 -26 47 -35 11
-10 25 -18 32 -18 7 0 14 -4 16 -8 5 -11 183 -115 258 -150 138 -64 181 -82
195 -82 7 0 17 -5 20 -10 8 -12 25 -13 25 -1 0 8 -22 18 -60 26 -18 5 -28 9
-190 89 -151 74 -203 104 -208 117 -2 5 -8 9 -14 9 -8 0 -80 47 -115 75 -7 6
-18 15 -25 20 -7 6 -36 28 -63 50 -73 57 -285 275 -285 292 0 4 -58 81 -70 93
-5 5 -34 50 -83 127 -15 24 -27 47 -27 53 0 5 -3 10 -7 10 -5 0 -19 25 -33 55
-14 30 -28 55 -32 55 -4 0 -5 -8 -1 -17z"/>
<path d="M3395 759 c-11 -17 1 -21 15 -4 8 9 8 15 2 15 -6 0 -14 -5 -17 -11z"/>
<path d="M3345 714 c-16 -25 -16 -25 3 -15 11 6 22 17 26 26 9 24 -10 17 -29
-11z"/>
<path d="M940 616 c0 -2 8 -10 18 -17 15 -13 16 -12 3 4 -13 16 -21 21 -21 13z"/>
<path d="M1017 549 c18 -18 35 -30 38 -27 3 3 -11 18 -32 33 l-38 28 32 -34z"/>
<path d="M1070 510 c0 -5 4 -10 8 -10 5 0 30 -16 56 -36 25 -21 49 -34 53 -30
3 3 4 7 2 9 -63 44 -119 75 -119 67z"/>
<path d="M1318 470 c42 -26 56 -26 17 0 -16 11 -34 20 -40 20 -5 0 5 -9 23
-20z"/>
<path d="M1195 431 c-8 -14 3 -33 16 -26 5 4 9 3 9 -2 0 -12 51 -33 63 -26 6
3 7 2 4 -3 -3 -6 3 -16 15 -23 15 -9 18 -10 13 0 -5 8 -4 10 3 5 7 -4 12 -15
12 -24 0 -15 2 -15 10 -2 15 23 14 24 -47 55 -32 16 -65 35 -75 43 -11 9 -18
10 -23 3z"/>
<path d="M1357 344 c-14 -15 -6 -23 19 -18 18 3 23 1 18 -7 -4 -7 -2 -10 7 -7
8 3 23 0 34 -5 24 -13 73 -21 62 -11 -4 4 -15 8 -25 9 -9 1 -32 9 -50 19 -18
9 -37 14 -41 11 -5 -3 -11 0 -13 6 -2 5 -7 7 -11 3z"/>
<path d="M1517 279 c7 -7 15 -10 18 -7 3 3 -2 9 -12 12 -14 6 -15 5 -6 -5z"/>
<path d="M1557 269 c7 -7 15 -10 18 -7 3 3 -2 9 -12 12 -14 6 -15 5 -6 -5z"/>
<path d="M2168 263 c7 -3 16 -2 19 1 4 3 -2 6 -13 5 -11 0 -14 -3 -6 -6z"/>
<path d="M1605 250 c27 -12 43 -12 25 0 -8 5 -22 9 -30 9 -10 0 -8 -3 5 -9z"/>
<path d="M1658 238 c5 -5 16 -8 23 -6 8 3 3 7 -10 11 -17 4 -21 3 -13 -5z"/>
<path d="M1708 223 c7 -3 16 -2 19 1 4 3 -2 6 -13 5 -11 0 -14 -3 -6 -6z"/>
<path d="M1570 192 c23 -15 120 -42 120 -34 0 4 -19 12 -42 19 -24 6 -54 14
-68 18 -18 4 -21 4 -10 -3z"/>
<path d="M1708 153 c7 -3 16 -2 19 1 4 3 -2 6 -13 5 -11 0 -14 -3 -6 -6z"/>
<path d="M1820 140 c0 -5 5 -10 11 -10 5 0 7 5 4 10 -3 6 -8 10 -11 10 -2 0
-4 -4 -4 -10z"/>
<path d="M1858 133 c7 -3 16 -2 19 1 4 3 -2 6 -13 5 -11 0 -14 -3 -6 -6z"/>
<path d="M1903 123 c9 -2 25 -2 35 0 9 3 1 5 -18 5 -19 0 -27 -2 -17 -5z"/>
<path d="M2130 120 c0 -12 39 -20 46 -9 3 5 2 9 -3 10 -4 0 -16 2 -25 4 -10 2
-18 0 -18 -5z"/>
</g>
</svg>
